D:\school\WTK\thesis\model\3dpredictsim\Results\batch_windlass\Pog_s1_tmt_bCst_d00_k1000_WL30_ig24_pas_GRF.mot
nRows=17
nColumns=19

name D:\school\WTK\thesis\model\3dpredictsim\Results\batch_windlass\Pog_s1_tmt_bCst_d00_k1000_WL30_ig24_pas_GRF.mot
datacolumns 19
datarows 17
range 0.5572385998 0.7355549517
endheader
time 	ground_force_vx	ground_force_vy	ground_force_vz	ground_force_px	ground_force_py	ground_force_pz	1_ground_force_vx	1_ground_force_vy	1_ground_force_vz	1_ground_force_px	1_ground_force_py	1_ground_force_pz	ground_torque_x	ground_torque_y	ground_torque_z	1_ground_torque_x	1_ground_torque_y	1_ground_torque_z
        0.5572385998	       79.7757010287	      436.3751438534	        4.4187263419	        0.3761020954	        0.0000000000	        0.0299345269	      -77.2348758996	       65.7821662568	      -31.9438839801	        0.8619149365	        0.0000000000	       -0.0388877662	        0.0000000000	        0.0000000000	        0.0000000000	        0.0000000000	        0.0000000000	        0.0000000000	
        0.5683833718	       53.4876237362	      339.3350925705	       12.3511435947	        0.3821024315	        0.0000000000	        0.0275400292	     -120.0059413337	      145.1278645568	      -81.2960395681	        0.8688863699	        0.0000000000	       -0.0366206244	        0.0000000000	        0.0000000000	        0.0000000000	        0.0000000000	        0.0000000000	        0.0000000000	
        0.5795281438	       23.9201479755	      233.1200554027	       11.8135413005	        0.3925525463	        0.0000000000	        0.0223388046	      -48.9962288335	      295.1144286374	      -31.9242460558	        0.8743830242	        0.0000000000	       -0.0340158502	        0.0000000000	        0.0000000000	        0.0000000000	        0.0000000000	        0.0000000000	        0.0000000000	
        0.5906729158	        6.6237169918	      157.2017463640	       10.5690970060	        0.4057944953	        0.0000000000	        0.0146874254	      -42.8855253025	      466.7088111248	       -3.5851857549	        0.8784652492	        0.0000000000	       -0.0341824570	        0.0000000000	        0.0000000000	        0.0000000000	        0.0000000000	        0.0000000000	        0.0000000000	
        0.6018176878	       -2.8531891280	      126.1110666173	        9.0601870645	        0.4054313023	        0.0000000000	        0.0147898019	      -70.2965427084	      673.8314989638	        7.9486458514	        0.8867662191	        0.0000000000	       -0.0365985417	        0.0000000000	        0.0000000000	        0.0000000000	        0.0000000000	        0.0000000000	        0.0000000000	
        0.6129624598	       -6.5681040991	       84.4079267630	        7.5832643881	        0.4057452208	        0.0000000000	        0.0147749920	      -94.6957699571	      803.2201262136	       14.5842193742	        0.8933546797	        0.0000000000	       -0.0384961431	        0.0000000000	        0.0000000000	        0.0000000000	        0.0000000000	        0.0000000000	        0.0000000000	
        0.6241072318	      -12.7737318513	       38.6699541670	        4.3727317436	        0.4051074855	        0.0000000000	        0.0146792376	     -106.2800988250	      854.4508866060	       17.6244051270	        0.8986311793	        0.0000000000	       -0.0398787252	        0.0000000000	        0.0000000000	        0.0000000000	        0.0000000000	        0.0000000000	        0.0000000000	
        0.6352520038	        0.2018287117	       -0.2002802758	        0.0100996854	        0.0000000000	        0.0000000000	        0.0000000000	     -113.8304054278	      871.9512715489	       17.9604293981	        0.9029703385	        0.0000000000	       -0.0407985464	        0.0000000000	        0.0000000000	        0.0000000000	        0.0000000000	        0.0000000000	        0.0000000000	
        0.6463967758	        0.0000467426	       -0.0000373754	        0.0000049704	        0.0000000000	        0.0000000000	        0.0000000000	     -107.3730105772	      869.7174071519	       17.1348136629	        0.9068451418	        0.0000000000	       -0.0410851844	        0.0000000000	        0.0000000000	        0.0000000000	        0.0000000000	        0.0000000000	        0.0000000000	
        0.6575415478	        0.0001748627	       -0.0001245191	        0.0000182270	        0.0000000000	        0.0000000000	        0.0000000000	      -94.7671928137	      836.3629150499	       16.5187742411	        0.9108982188	        0.0000000000	       -0.0411254307	        0.0000000000	        0.0000000000	        0.0000000000	        0.0000000000	        0.0000000000	        0.0000000000	
        0.6686863198	        0.0012338182	       -0.0008003295	        0.0001256643	        0.0000000000	        0.0000000000	        0.0000000000	      -83.0551326443	      794.5600030214	       16.5778073391	        0.9154399209	        0.0000000000	       -0.0410349244	        0.0000000000	        0.0000000000	        0.0000000000	        0.0000000000	        0.0000000000	        0.0000000000	
        0.6798310917	        0.0086642905	       -0.0052438594	        0.0008454659	        0.0000000000	        0.0000000000	        0.0000000000	      -71.3131269438	      749.5005586447	       16.4831306394	        0.9196777076	        0.0000000000	       -0.0409079720	        0.0000000000	        0.0000000000	        0.0000000000	        0.0000000000	        0.0000000000	        0.0000000000	
        0.6909758637	       -0.0597480121	        0.0340627156	       -0.0056594099	        0.0000000000	        0.0000000000	        0.0000000000	      -60.1625938830	      706.9095723774	       16.7790155311	        0.9234887649	        0.0000000000	       -0.0408484393	        0.0000000000	        0.0000000000	        0.0000000000	        0.0000000000	        0.0000000000	        0.0000000000	
        0.7021206357	       -0.0378411422	        0.0203700102	       -0.0035699009	        0.0000000000	        0.0000000000	        0.0000000000	      -50.0193133191	      671.1905767831	       17.4491064802	        0.9270709900	        0.0000000000	       -0.0408576381	        0.0000000000	        0.0000000000	        0.0000000000	        0.0000000000	        0.0000000000	        0.0000000000	
        0.7132654077	       -0.0232162679	        0.0118264779	       -0.0022252838	        0.0000000000	        0.0000000000	        0.0000000000	      -40.9949896550	      642.8175646698	       18.1932058748	        0.9306751536	        0.0000000000	       -0.0409185216	        0.0000000000	        0.0000000000	        0.0000000000	        0.0000000000	        0.0000000000	        0.0000000000	
        0.7244101797	       -0.0173849350	        0.0084184096	       -0.0017054811	        0.0000000000	        0.0000000000	        0.0000000000	      -33.4026804496	      620.6990433372	       18.8872497090	        0.9344229701	        0.0000000000	       -0.0410090760	        0.0000000000	        0.0000000000	        0.0000000000	        0.0000000000	        0.0000000000	        0.0000000000	
        0.7355549517	       -0.0168192718	        0.0077899131	       -0.0016833794	        0.0000000000	        0.0000000000	        0.0000000000	      -27.1507280001	      603.5373911889	       19.4299918134	        0.9382348941	        0.0000000000	       -0.0411115191	        0.0000000000	        0.0000000000	        0.0000000000	        0.0000000000	        0.0000000000	        0.0000000000	
